<svg width="150" height="150" viewBox="0 0 150 150" fill="none" xmlns="http://www.w3.org/2000/svg">
<path d="M31.7491 70V58.64H40.7251V70H38.9171V60.224H33.5411V70H31.7491ZM46.8316 70.16C46.1703 70.16 45.5783 70.048 45.0556 69.824C44.533 69.5893 44.0796 69.2693 43.6956 68.864C43.3223 68.4587 43.0343 68 42.8316 67.488C42.629 66.9653 42.5276 66.4107 42.5276 65.824C42.5276 65.2373 42.629 64.6827 42.8316 64.16C43.0343 63.6373 43.3223 63.1787 43.6956 62.784C44.0796 62.3787 44.533 62.064 45.0556 61.84C45.589 61.6053 46.181 61.488 46.8316 61.488C47.4823 61.488 48.069 61.6053 48.5916 61.84C49.125 62.064 49.5783 62.3787 49.9516 62.784C50.3356 63.1787 50.629 63.6373 50.8316 64.16C51.0343 64.6827 51.1356 65.2373 51.1356 65.824C51.1356 66.4107 51.0343 66.9653 50.8316 67.488C50.629 68 50.3356 68.4587 49.9516 68.864C49.5783 69.2693 49.125 69.5893 48.5916 69.824C48.069 70.048 47.4823 70.16 46.8316 70.16ZM44.3356 65.84C44.3356 66.3733 44.4476 66.8533 44.6716 67.28C44.8956 67.7067 45.1943 68.0427 45.5676 68.288C45.941 68.5333 46.3623 68.656 46.8316 68.656C47.2903 68.656 47.7063 68.5333 48.0796 68.288C48.4636 68.032 48.7676 67.6907 48.9916 67.264C49.2156 66.8267 49.3276 66.3467 49.3276 65.824C49.3276 65.2907 49.2156 64.8107 48.9916 64.384C48.7676 63.9573 48.4636 63.6213 48.0796 63.376C47.7063 63.12 47.2903 62.992 46.8316 62.992C46.3623 62.992 45.941 63.12 45.5676 63.376C45.1943 63.632 44.8956 63.9733 44.6716 64.4C44.4476 64.816 44.3356 65.296 44.3356 65.84ZM51.8966 72V68.448H52.0886C52.3126 68.448 52.5206 68.384 52.7126 68.256C52.9046 68.128 53.0753 67.9093 53.2246 67.6C53.374 67.28 53.4966 66.8427 53.5926 66.288C53.6886 65.7227 53.7473 65.0133 53.7686 64.16L53.8646 61.632H59.8326V68.448H60.9846V72H59.4326V70H53.4326V72H51.8966ZM54.4086 68.448H58.0726V63.152H55.4166L55.3686 64.32C55.3366 65.1307 55.278 65.8133 55.1926 66.368C55.118 66.9227 55.0113 67.3653 54.8726 67.696C54.7446 68.0267 54.59 68.2773 54.4086 68.448ZM67.2299 70.16C66.5579 70.16 65.9659 70 65.4539 69.68C64.9419 69.36 64.5365 68.944 64.2379 68.432V73.408H62.4779V61.632H64.0299V63.136C64.3499 62.6347 64.7659 62.2347 65.2779 61.936C65.7899 61.6373 66.3605 61.488 66.9899 61.488C67.5659 61.488 68.0939 61.6053 68.5739 61.84C69.0539 62.064 69.4699 62.3787 69.8219 62.784C70.1739 63.1893 70.4459 63.6533 70.6379 64.176C70.8405 64.688 70.9419 65.232 70.9419 65.808C70.9419 66.608 70.7819 67.3387 70.4619 68C70.1525 68.6613 69.7152 69.1893 69.1499 69.584C68.5952 69.968 67.9552 70.16 67.2299 70.16ZM66.6539 68.656C67.0272 68.656 67.3632 68.576 67.6619 68.416C67.9712 68.256 68.2325 68.0427 68.4459 67.776C68.6699 67.5093 68.8405 67.2053 68.9579 66.864C69.0752 66.5227 69.1339 66.1707 69.1339 65.808C69.1339 65.424 69.0699 65.0613 68.9419 64.72C68.8139 64.3787 68.6272 64.08 68.3819 63.824C68.1472 63.568 67.8699 63.3653 67.5499 63.216C67.2405 63.0667 66.8992 62.992 66.5259 62.992C66.3019 62.992 66.0672 63.0347 65.8219 63.12C65.5765 63.2053 65.3472 63.3227 65.1339 63.472C64.9205 63.6213 64.7339 63.7973 64.5739 64C64.4139 64.2027 64.3019 64.416 64.2379 64.64V66.832C64.3872 67.1733 64.5845 67.4827 64.8299 67.76C65.0752 68.0267 65.3579 68.2453 65.6779 68.416C65.9979 68.576 66.3232 68.656 66.6539 68.656ZM76.2848 70.16C75.6234 70.16 75.0314 70.048 74.5088 69.824C73.9861 69.5893 73.5328 69.2693 73.1488 68.864C72.7754 68.4587 72.4874 68 72.2848 67.488C72.0821 66.9653 71.9808 66.4107 71.9808 65.824C71.9808 65.2373 72.0821 64.6827 72.2848 64.16C72.4874 63.6373 72.7754 63.1787 73.1488 62.784C73.5328 62.3787 73.9861 62.064 74.5088 61.84C75.0421 61.6053 75.6341 61.488 76.2848 61.488C76.9354 61.488 77.5221 61.6053 78.0448 61.84C78.5781 62.064 79.0314 62.3787 79.4048 62.784C79.7888 63.1787 80.0821 63.6373 80.2847 64.16C80.4874 64.6827 80.5888 65.2373 80.5888 65.824C80.5888 66.4107 80.4874 66.9653 80.2847 67.488C80.0821 68 79.7888 68.4587 79.4048 68.864C79.0314 69.2693 78.5781 69.5893 78.0448 69.824C77.5221 70.048 76.9354 70.16 76.2848 70.16ZM73.7888 65.84C73.7888 66.3733 73.9008 66.8533 74.1248 67.28C74.3488 67.7067 74.6474 68.0427 75.0208 68.288C75.3941 68.5333 75.8154 68.656 76.2848 68.656C76.7434 68.656 77.1594 68.5333 77.5328 68.288C77.9168 68.032 78.2208 67.6907 78.4448 67.264C78.6688 66.8267 78.7808 66.3467 78.7808 65.824C78.7808 65.2907 78.6688 64.8107 78.4448 64.384C78.2208 63.9573 77.9168 63.6213 77.5328 63.376C77.1594 63.12 76.7434 62.992 76.2848 62.992C75.8154 62.992 75.3941 63.12 75.0208 63.376C74.6474 63.632 74.3488 63.9733 74.1248 64.4C73.9008 64.816 73.7888 65.296 73.7888 65.84ZM86.1978 70.16C84.8004 70.16 83.7391 69.7387 83.0138 68.896C82.2884 68.0533 81.9258 66.848 81.9258 65.28C81.9258 64.256 82.0111 63.392 82.1818 62.688C82.3631 61.9733 82.6244 61.3867 82.9658 60.928C83.3178 60.4693 83.7498 60.096 84.2618 59.808C84.7844 59.5093 85.3871 59.2693 86.0698 59.088L89.6378 58.096L89.7018 59.568L86.1978 60.56C85.6431 60.7307 85.1684 60.9547 84.7738 61.232C84.3898 61.5093 84.0858 61.872 83.8618 62.32C83.6378 62.7573 83.4884 63.312 83.4138 63.984C83.7124 63.44 84.1391 63.0133 84.6938 62.704C85.2484 62.3947 85.9044 62.24 86.6618 62.24C87.4404 62.24 88.1124 62.4053 88.6778 62.736C89.2431 63.056 89.6804 63.504 89.9898 64.08C90.2991 64.656 90.4538 65.3173 90.4538 66.064C90.4538 66.8747 90.2884 67.5893 89.9578 68.208C89.6378 68.816 89.1578 69.296 88.5178 69.648C87.8884 69.9893 87.1151 70.16 86.1978 70.16ZM86.1978 68.656C86.9764 68.656 87.5791 68.4267 88.0058 67.968C88.4431 67.5093 88.6618 66.9013 88.6618 66.144C88.6618 65.4187 88.4431 64.8267 88.0058 64.368C87.5791 63.8987 86.9764 63.664 86.1978 63.664C85.7391 63.664 85.3231 63.7653 84.9498 63.968C84.5764 64.16 84.2831 64.4427 84.0698 64.816C83.8564 65.1787 83.7498 65.6213 83.7498 66.144C83.7498 66.6347 83.8458 67.072 84.0378 67.456C84.2298 67.8293 84.5071 68.1227 84.8698 68.336C85.2324 68.5493 85.6751 68.656 86.1978 68.656ZM92.0404 70V61.632H93.8004V64.96H97.6884V61.632H99.4484V70H97.6884V66.48H93.8004V70H92.0404ZM105.364 70.16C104.713 70.16 104.121 70.048 103.588 69.824C103.065 69.5893 102.612 69.2747 102.228 68.88C101.844 68.4747 101.545 68.016 101.332 67.504C101.129 66.9813 101.028 66.4267 101.028 65.84C101.028 65.0507 101.209 64.3307 101.572 63.68C101.934 63.0187 102.441 62.4907 103.092 62.096C103.742 61.6907 104.505 61.488 105.38 61.488C106.254 61.488 107.006 61.6907 107.636 62.096C108.276 62.4907 108.772 63.0133 109.124 63.664C109.476 64.3147 109.652 65.0133 109.652 65.76C109.652 65.888 109.646 66.0107 109.636 66.128C109.625 66.2347 109.614 66.3253 109.604 66.4H102.9C102.932 66.8907 103.065 67.3227 103.3 67.696C103.545 68.0587 103.854 68.3467 104.228 68.56C104.601 68.7627 105.001 68.864 105.428 68.864C105.897 68.864 106.34 68.7467 106.756 68.512C107.182 68.2773 107.47 67.968 107.62 67.584L109.124 68.016C108.942 68.4213 108.665 68.7893 108.292 69.12C107.929 69.44 107.497 69.696 106.996 69.888C106.494 70.0693 105.95 70.16 105.364 70.16ZM102.852 65.232H107.908C107.876 64.752 107.737 64.3307 107.492 63.968C107.257 63.5947 106.953 63.3067 106.58 63.104C106.217 62.8907 105.812 62.784 105.364 62.784C104.926 62.784 104.521 62.8907 104.148 63.104C103.785 63.3067 103.486 63.5947 103.252 63.968C103.017 64.3307 102.884 64.752 102.852 65.232ZM114.879 70.16C114.229 70.16 113.637 70.048 113.103 69.824C112.581 69.5893 112.127 69.2747 111.743 68.88C111.359 68.4747 111.061 68.016 110.847 67.504C110.645 66.9813 110.543 66.4267 110.543 65.84C110.543 65.0507 110.725 64.3307 111.087 63.68C111.45 63.0187 111.957 62.4907 112.607 62.096C113.258 61.6907 114.021 61.488 114.895 61.488C115.77 61.488 116.522 61.6907 117.151 62.096C117.791 62.4907 118.287 63.0133 118.639 63.664C118.991 64.3147 119.167 65.0133 119.167 65.76C119.167 65.888 119.162 66.0107 119.151 66.128C119.141 66.2347 119.13 66.3253 119.119 66.4H112.415C112.447 66.8907 112.581 67.3227 112.815 67.696C113.061 68.0587 113.37 68.3467 113.743 68.56C114.117 68.7627 114.517 68.864 114.943 68.864C115.413 68.864 115.855 68.7467 116.271 68.512C116.698 68.2773 116.986 67.968 117.135 67.584L118.639 68.016C118.458 68.4213 118.181 68.7893 117.807 69.12C117.445 69.44 117.013 69.696 116.511 69.888C116.01 70.0693 115.466 70.16 114.879 70.16ZM112.367 65.232H117.423C117.391 64.752 117.253 64.3307 117.007 63.968C116.773 63.5947 116.469 63.3067 116.095 63.104C115.733 62.8907 115.327 62.784 114.879 62.784C114.442 62.784 114.037 62.8907 113.663 63.104C113.301 63.3067 113.002 63.5947 112.767 63.968C112.533 64.3307 112.399 64.752 112.367 65.232ZM34.691 90.16C34.0297 90.16 33.4377 90.048 32.915 89.824C32.3923 89.5893 31.939 89.2693 31.555 88.864C31.1817 88.4587 30.8937 88 30.691 87.488C30.4883 86.9653 30.387 86.4107 30.387 85.824C30.387 85.2373 30.4883 84.6827 30.691 84.16C30.8937 83.6373 31.1817 83.1787 31.555 82.784C31.939 82.3787 32.3923 82.064 32.915 81.84C33.4483 81.6053 34.0403 81.488 34.691 81.488C35.3417 81.488 35.9283 81.6053 36.451 81.84C36.9843 82.064 37.4377 82.3787 37.811 82.784C38.195 83.1787 38.4883 83.6373 38.691 84.16C38.8937 84.6827 38.995 85.2373 38.995 85.824C38.995 86.4107 38.8937 86.9653 38.691 87.488C38.4883 88 38.195 88.4587 37.811 88.864C37.4377 89.2693 36.9843 89.5893 36.451 89.824C35.9283 90.048 35.3417 90.16 34.691 90.16ZM32.195 85.84C32.195 86.3733 32.307 86.8533 32.531 87.28C32.755 87.7067 33.0537 88.0427 33.427 88.288C33.8003 88.5333 34.2217 88.656 34.691 88.656C35.1497 88.656 35.5657 88.5333 35.939 88.288C36.323 88.032 36.627 87.6907 36.851 87.264C37.075 86.8267 37.187 86.3467 37.187 85.824C37.187 85.2907 37.075 84.8107 36.851 84.384C36.627 83.9573 36.323 83.6213 35.939 83.376C35.5657 83.12 35.1497 82.992 34.691 82.992C34.2217 82.992 33.8003 83.12 33.427 83.376C33.0537 83.632 32.755 83.9733 32.531 84.4C32.307 84.816 32.195 85.296 32.195 85.84ZM44.5091 90V81.632H46.2531V84.944H47.0851L49.5491 81.632H51.5011L48.4451 85.68L51.8531 90H49.8211L47.0691 86.528H46.2531V90H44.5091ZM56.5191 90.16C55.8578 90.16 55.2658 90.048 54.7431 89.824C54.2205 89.5893 53.7671 89.2693 53.3831 88.864C53.0098 88.4587 52.7218 88 52.5191 87.488C52.3165 86.9653 52.2151 86.4107 52.2151 85.824C52.2151 85.2373 52.3165 84.6827 52.5191 84.16C52.7218 83.6373 53.0098 83.1787 53.3831 82.784C53.7671 82.3787 54.2205 82.064 54.7431 81.84C55.2765 81.6053 55.8685 81.488 56.5191 81.488C57.1698 81.488 57.7565 81.6053 58.2791 81.84C58.8125 82.064 59.2658 82.3787 59.6391 82.784C60.0231 83.1787 60.3165 83.6373 60.5191 84.16C60.7218 84.6827 60.8231 85.2373 60.8231 85.824C60.8231 86.4107 60.7218 86.9653 60.5191 87.488C60.3165 88 60.0231 88.4587 59.6391 88.864C59.2658 89.2693 58.8125 89.5893 58.2791 89.824C57.7565 90.048 57.1698 90.16 56.5191 90.16ZM54.0231 85.84C54.0231 86.3733 54.1351 86.8533 54.3591 87.28C54.5831 87.7067 54.8818 88.0427 55.2551 88.288C55.6285 88.5333 56.0498 88.656 56.5191 88.656C56.9778 88.656 57.3938 88.5333 57.7671 88.288C58.1511 88.032 58.4551 87.6907 58.6791 87.264C58.9031 86.8267 59.0151 86.3467 59.0151 85.824C59.0151 85.2907 58.9031 84.8107 58.6791 84.384C58.4551 83.9573 58.1511 83.6213 57.7671 83.376C57.3938 83.12 56.9778 82.992 56.5191 82.992C56.0498 82.992 55.6285 83.12 55.2551 83.376C54.8818 83.632 54.5831 83.9733 54.3591 84.4C54.1351 84.816 54.0231 85.296 54.0231 85.84ZM62.3841 90V81.632H64.2081L67.0881 86.8L69.9841 81.632H71.7761V90H70.0961V84.112L67.6321 88.512H66.5281L64.0481 84.112V90H62.3841ZM73.8841 90V81.632H81.0841V90H79.3241V83.184H75.6441V90H73.8841ZM82.6043 87.552C82.6043 87.0187 82.7536 86.5547 83.0523 86.16C83.3616 85.7547 83.7829 85.4453 84.3163 85.232C84.8496 85.008 85.4683 84.896 86.1723 84.896C86.5456 84.896 86.9243 84.9227 87.3083 84.976C87.7029 85.0293 88.0496 85.1147 88.3483 85.232V84.704C88.3483 84.1173 88.1723 83.6587 87.8203 83.328C87.4683 82.9973 86.9616 82.832 86.3003 82.832C85.8309 82.832 85.3883 82.9173 84.9723 83.088C84.5563 83.248 84.1136 83.4773 83.6443 83.776L83.0523 82.592C83.6069 82.2187 84.1616 81.9413 84.7163 81.76C85.2816 81.5787 85.8736 81.488 86.4923 81.488C87.6123 81.488 88.4923 81.7867 89.1323 82.384C89.7829 82.9707 90.1083 83.808 90.1083 84.896V88.016C90.1083 88.2187 90.1403 88.3627 90.2043 88.448C90.2789 88.5333 90.4016 88.5813 90.5723 88.592V90C90.4123 90.032 90.2683 90.0533 90.1403 90.064C90.0123 90.0747 89.9056 90.08 89.8203 90.08C89.4469 90.08 89.1643 89.9893 88.9723 89.808C88.7803 89.6267 88.6683 89.4133 88.6363 89.168L88.5883 88.688C88.2256 89.1573 87.7616 89.52 87.1963 89.776C86.6309 90.032 86.0603 90.16 85.4843 90.16C84.9296 90.16 84.4336 90.048 83.9963 89.824C83.5589 89.5893 83.2176 89.2747 82.9723 88.88C82.7269 88.4853 82.6043 88.0427 82.6043 87.552ZM87.9323 88.064C88.0603 87.9253 88.1616 87.7867 88.2363 87.648C88.3109 87.5093 88.3483 87.3867 88.3483 87.28V86.32C88.0496 86.2027 87.7349 86.1173 87.4043 86.064C87.0736 86 86.7483 85.968 86.4283 85.968C85.7883 85.968 85.2656 86.096 84.8603 86.352C84.4656 86.608 84.2682 86.96 84.2682 87.408C84.2682 87.6533 84.3323 87.888 84.4603 88.112C84.5989 88.336 84.7909 88.5173 85.0363 88.656C85.2923 88.7947 85.6069 88.864 85.9803 88.864C86.3643 88.864 86.7323 88.7893 87.0843 88.64C87.4363 88.4907 87.7189 88.2987 87.9323 88.064ZM92.2435 90V81.632H94.0035V84.96H97.8915V81.632H99.6515V90H97.8915V86.48H94.0035V90H92.2435ZM101.775 90V81.648H103.535V87.648L107.775 81.632H109.375V90H107.615V84.128L103.423 90H101.775ZM111.478 90V81.648H113.238V87.648L117.478 81.632H119.078V90H117.318V84.128L113.126 90H111.478Z" fill="#F64F00"/>
<rect x="0.5" y="0.5" width="149" height="149" rx="74.5" stroke="#F64F00"/>
</svg>
