<svg width="184" height="184" viewBox="0 0 184 184" fill="none" xmlns="http://www.w3.org/2000/svg">
<rect x="39" width="150" height="150" rx="75" transform="rotate(15 39 0)" fill="white"/>
<path d="M65.1951 86.8098C65.0377 87.3971 64.7479 87.8606 64.3256 88.2002C63.9136 88.5425 63.4197 88.758 62.8438 88.8467C62.2679 88.9353 61.6708 88.8968 61.0526 88.7312L55.8135 87.3273L58.7536 76.3544L64.4101 77.87C64.9253 78.0081 65.331 78.2659 65.6274 78.6435C65.9368 79.0135 66.1315 79.4411 66.2113 79.9263C66.3042 80.4039 66.2885 80.8746 66.1642 81.3382C66.0207 81.874 65.7463 82.3416 65.3411 82.741C64.949 83.1329 64.4702 83.3745 63.9046 83.4659C64.4834 83.8197 64.8868 84.2923 65.1149 84.8834C65.3561 85.4671 65.3828 86.1092 65.1951 86.8098ZM63.5047 86.009C63.5875 85.6999 63.5951 85.4038 63.5274 85.1207C63.4728 84.8299 63.3529 84.5769 63.1676 84.3617C62.9954 84.1388 62.7599 83.9874 62.4611 83.9073L58.8447 82.9383L57.9461 86.292L61.4543 87.232C61.7634 87.3149 62.0558 87.3159 62.3314 87.2351C62.6201 87.1469 62.8645 86.997 63.0647 86.7856C63.278 86.5667 63.4247 86.3078 63.5047 86.009ZM60.0829 78.3173L59.2174 81.5474L62.4011 82.4004C62.6896 82.4777 62.9651 82.4798 63.2277 82.4066C63.493 82.3231 63.7244 82.1808 63.9218 81.9797C64.122 81.7683 64.2635 81.5081 64.3463 81.199C64.4319 80.8796 64.4446 80.5848 64.3845 80.3147C64.3271 80.0343 64.2082 79.7982 64.0277 79.6062C63.8603 79.4068 63.6375 79.2698 63.3593 79.1952L60.0829 78.3173ZM69.8445 91.0869L72.0103 83.0041L73.6949 83.4554L72.8377 86.6546L73.6413 86.8699L76.8786 84.3085L78.764 84.8137L74.7645 87.9328L76.9383 92.9877L74.9755 92.4618L73.2159 88.3958L72.4277 88.1846L71.5291 91.5383L69.8445 91.0869ZM78.2521 90.8054C78.3901 90.2902 78.6545 89.8807 79.0451 89.5768C79.4488 89.2653 79.9358 89.0756 80.5062 89.0075C81.0794 88.9292 81.7059 88.9811 82.3859 89.1633C82.7466 89.26 83.1054 89.3837 83.4625 89.5346C83.8299 89.6883 84.1427 89.8605 84.4008 90.0511L84.5375 89.5411C84.6893 88.9744 84.638 88.4858 84.3836 88.0753C84.1292 87.6648 83.6826 87.374 83.0438 87.2028C82.5904 87.0813 82.1408 87.0492 81.6948 87.1064C81.2515 87.1532 80.7646 87.2602 80.234 87.4272L79.9686 86.1303C80.601 85.9133 81.2085 85.789 81.7912 85.7574C82.3842 85.7285 82.9795 85.7942 83.5771 85.9543C84.6589 86.2442 85.4316 86.7604 85.8952 87.503C86.3719 88.2381 86.4694 89.1311 86.1878 90.1821L85.3803 93.1957C85.3279 93.3915 85.3215 93.5389 85.3612 93.6379C85.4113 93.7396 85.5173 93.8177 85.6794 93.8722L85.315 95.2322C85.1522 95.2217 85.0076 95.2051 84.8812 95.1822C84.7548 95.1594 84.6503 95.137 84.5679 95.1149C84.2073 95.0183 83.9577 94.8575 83.8192 94.6327C83.6807 94.4078 83.6277 94.1728 83.6603 93.9275L83.7382 93.4514C83.2664 93.8109 82.7243 94.0411 82.112 94.1421C81.4997 94.2431 80.9153 94.219 80.359 94.0699C79.8232 93.9264 79.3731 93.6898 79.0086 93.3602C78.6469 93.0204 78.3987 92.6281 78.2638 92.1834C78.129 91.7387 78.1251 91.2793 78.2521 90.8054ZM83.266 92.6789C83.4256 92.5781 83.5593 92.4704 83.6673 92.3558C83.7754 92.2412 83.8432 92.1323 83.8708 92.0293L84.1192 91.102C83.8611 90.9114 83.5793 90.7475 83.2737 90.6104C82.9708 90.463 82.6649 90.3479 82.3558 90.2651C81.7376 90.0994 81.1996 90.0878 80.7418 90.2302C80.2943 90.3753 80.0126 90.6642 79.8967 91.097C79.8332 91.3339 79.8343 91.5772 79.8999 91.8267C79.9759 92.0789 80.1144 92.3038 80.3155 92.5012C80.5269 92.7014 80.8129 92.8498 81.1735 92.9464C81.5444 93.0458 81.9192 93.069 82.2978 93.0158C82.6765 92.9627 82.9992 92.8504 83.266 92.6789ZM88.7551 96.154L90.5193 89.5703L87.8456 88.8539L88.2473 87.3547L95.3101 89.2472L94.9084 90.7463L92.2193 90.0258L90.4552 96.6095L88.7551 96.154ZM94.4464 95.1446C94.5845 94.6295 94.8488 94.2199 95.2395 93.916C95.6432 93.6046 96.1302 93.4148 96.7006 93.3468C97.2737 93.2685 97.9003 93.3204 98.5803 93.5026C98.9409 93.5992 99.2998 93.723 99.6569 93.8739C100.024 94.0276 100.337 94.1997 100.595 94.3903L100.732 93.8803C100.884 93.3137 100.832 92.8251 100.578 92.4146C100.324 92.0041 99.8769 91.7132 99.2381 91.5421C98.7848 91.4206 98.3351 91.3884 97.8891 91.4456C97.4459 91.4925 96.959 91.5995 96.4283 91.7665L96.1629 90.4696C96.7953 90.2525 97.4029 90.1282 97.9856 90.0966C98.5786 90.0678 99.1739 90.1334 99.7714 90.2936C100.853 90.5834 101.626 91.0997 102.09 91.8423C102.566 92.5774 102.664 93.4704 102.382 94.5213L101.575 97.535C101.522 97.7308 101.516 97.8781 101.556 97.9771C101.606 98.0789 101.712 98.157 101.874 98.2115L101.509 99.5715C101.347 99.561 101.202 99.5443 101.076 99.5215C100.949 99.4987 100.845 99.4762 100.762 99.4541C100.402 99.3575 100.152 99.1968 100.014 98.9719C99.875 98.7471 99.8221 98.512 99.8547 98.2668L99.9325 97.7907C99.4607 98.1502 98.9187 98.3804 98.3064 98.4814C97.694 98.5823 97.1097 98.5583 96.5533 98.4092C96.0175 98.2656 95.5674 98.0291 95.203 97.6995C94.8413 97.3596 94.593 96.9674 94.4582 96.5226C94.3234 96.0779 94.3195 95.6186 94.4464 95.1446ZM99.4604 97.0182C99.6199 96.9174 99.7537 96.8097 99.8617 96.695C99.9697 96.5804 100.038 96.4716 100.065 96.3686L100.314 95.4413C100.055 95.2506 99.7736 95.0868 99.468 94.9497C99.1652 94.8023 98.8592 94.6872 98.5501 94.6043C97.9319 94.4387 97.3939 94.4271 96.9362 94.5694C96.4887 94.7146 96.207 95.0035 96.091 95.4362C96.0275 95.6732 96.0286 95.9164 96.0943 96.1659C96.1702 96.4182 96.3088 96.643 96.5098 96.8405C96.7212 97.0407 97.0072 97.1891 97.3678 97.2857C97.7388 97.3851 98.1135 97.4082 98.4922 97.3551C98.8709 97.3019 99.1936 97.1896 99.4604 97.0182ZM102.454 99.9074L102.86 98.3928C103.117 98.4618 103.366 98.4621 103.605 98.3937C103.847 98.315 104.085 98.1469 104.32 97.8896C104.557 97.6219 104.795 97.2274 105.034 96.7062C105.273 96.185 105.522 95.5061 105.779 94.6695L106.541 92.2566L112.306 93.8012L110.14 101.884L108.44 101.429L110.204 94.8448L107.639 94.1574L107.314 95.2464C106.983 96.3172 106.643 97.1925 106.295 97.8723C105.95 98.5418 105.582 99.0505 105.191 99.3984C104.813 99.7388 104.392 99.9465 103.931 100.022C103.482 100.089 102.99 100.051 102.454 99.9074ZM115.77 103.558C115.131 103.387 114.588 103.126 114.141 102.774C113.697 102.412 113.342 101.986 113.076 101.495C112.82 101.007 112.661 100.489 112.598 99.942C112.537 99.3846 112.583 98.8226 112.735 98.256C112.886 97.6893 113.128 97.1798 113.459 96.7274C113.79 96.275 114.187 95.9065 114.65 95.6219C115.125 95.3297 115.645 95.1431 116.208 95.062C116.783 94.9734 117.386 95.0133 118.014 95.1817C118.643 95.3501 119.179 95.6153 119.623 95.9772C120.08 96.3316 120.437 96.7529 120.692 97.241C120.961 97.7216 121.126 98.2406 121.186 98.7979C121.247 99.3552 121.201 99.9172 121.049 100.484C120.897 101.051 120.656 101.56 120.325 102.013C119.997 102.455 119.595 102.822 119.119 103.114C118.653 103.409 118.133 103.601 117.557 103.689C116.994 103.77 116.398 103.727 115.77 103.558ZM114.477 98.7394C114.339 99.2545 114.323 99.7472 114.429 100.217C114.535 100.687 114.736 101.089 115.033 101.423C115.33 101.756 115.706 101.984 116.159 102.105C116.602 102.224 117.036 102.213 117.46 102.073C117.897 101.925 118.279 101.674 118.606 101.32C118.935 100.955 119.168 100.521 119.303 100.016C119.441 99.5008 119.457 99.0082 119.351 98.538C119.245 98.0679 119.038 97.6647 118.731 97.3284C118.437 96.9844 118.068 96.7531 117.625 96.6344C117.172 96.513 116.731 96.5275 116.305 96.6782C115.878 96.8288 115.501 97.0813 115.174 97.4354C114.85 97.7793 114.618 98.2139 114.477 98.7394ZM121.476 104.922L123.642 96.8387L128.804 98.2219L128.402 99.721L124.94 98.7934L123.176 105.377L121.476 104.922Z" fill="#333333"/>
</svg>
