<svg width="65" height="65" viewBox="0 0 65 65" fill="none" xmlns="http://www.w3.org/2000/svg">
<g filter="url(#filter0_d_2_332)">
<path d="M27.8635 2.65715C30.2651 -0.27281 34.7349 -0.272814 37.1364 2.65714L40.1981 6.39249C41.4898 7.96838 43.4073 8.89504 45.4415 8.92573L50.2612 8.99844C54.0401 9.05544 56.8298 12.5617 56.0434 16.2752L55.0415 21.0058C54.619 23.0009 55.0922 25.0817 56.336 26.6957L59.2844 30.5217C61.5983 33.5244 60.6021 37.899 57.2207 39.5961L52.9097 41.7598C51.0905 42.6728 49.7641 44.342 49.282 46.3235L48.1388 51.0218C47.2417 54.709 43.2133 56.6534 39.784 55.0598L35.4101 53.0272C33.5643 52.1694 31.4357 52.1694 29.5899 53.0272L25.216 55.0598C21.7867 56.6534 17.7583 54.709 16.8612 51.0218L15.718 46.3235C15.2359 44.342 13.9095 42.6728 12.0903 41.7598L7.77931 39.5961C4.39788 37.899 3.40169 33.5244 5.71559 30.5217L8.66397 26.6957C9.90776 25.0817 10.381 23.0009 9.95849 21.0058L8.95665 16.2752C8.17021 12.5617 10.9599 9.05544 14.7388 8.99844L19.5585 8.92573C21.5927 8.89504 23.5102 7.96838 24.8019 6.39249L27.8635 2.65715Z" stroke="#F64F00" stroke-width="0.919355"/>
<path d="M23.7413 26.4232L23.7476 26.4267L23.754 26.43C24.6048 26.8692 25.5407 27.0857 26.5534 27.0857C27.566 27.0857 28.4937 26.8692 29.3265 26.4277L29.3265 26.4277L29.3303 26.4257C30.1718 25.9695 30.8469 25.3656 31.3439 24.6123L31.3439 24.6123L31.3472 24.6072C31.8471 23.8271 32.0978 22.9651 32.0978 22.0318C32.0978 21.0985 31.847 20.2442 31.3439 19.4815C30.8468 18.728 30.171 18.1335 29.3285 17.6973C28.4958 17.2353 27.5672 17.0081 26.5534 17.0081C25.5377 17.0081 24.5994 17.2361 23.7477 17.6974C22.9238 18.1346 22.2591 18.7296 21.763 19.4815L22.1344 19.7266L21.763 19.4815C21.2599 20.2442 21.0091 21.0985 21.0091 22.0318C21.0091 22.9651 21.2598 23.8271 21.7597 24.6072L21.7597 24.6072L21.763 24.6123C22.2581 25.3627 22.9206 25.9663 23.7413 26.4232ZM22.8786 37.5076L22.5788 37.8519L22.9211 38.1541L24.7701 39.7862L25.1346 40.108L25.4354 39.726L33.6879 29.2458L42.1249 19.4606L42.424 19.1136L42.0781 18.8133L40.1983 17.1811L39.8313 16.8625L39.5336 17.2466L31.5294 27.5733L22.8786 37.5076ZM35.6672 39.3294L35.6672 39.3295L35.6755 39.3339C36.5083 39.7754 37.436 39.992 38.4486 39.992C39.4611 39.992 40.3888 39.7754 41.2216 39.3339L41.2217 39.3339L41.2254 39.3319C42.0669 38.8758 42.742 38.2718 43.239 37.5185C43.7421 36.7559 43.9929 35.9016 43.9929 34.9683C43.9929 34.036 43.7427 33.1826 43.2408 32.4207C42.7444 31.6471 42.0685 31.0411 41.2236 30.6036C40.3909 30.1415 39.4624 29.9143 38.4486 29.9143C37.4339 29.9143 36.5046 30.1419 35.6713 30.6048C34.847 31.0427 34.1744 31.6473 33.6599 32.4153L33.6581 32.418C33.155 33.1807 32.9042 34.0349 32.9042 34.9683C32.9042 35.9016 33.155 36.7559 33.6581 37.5185L33.658 37.5186L33.6634 37.5264C34.1779 38.2723 34.8482 38.8735 35.6672 39.3294ZM39.6402 36.4525L39.6401 36.4525L39.6332 36.461C39.3041 36.8645 38.9183 37.0475 38.4486 37.0475C38.0032 37.0475 37.6121 36.8673 37.2569 36.4525C36.8993 36.035 36.7203 35.5477 36.7203 34.9683C36.7203 34.3889 36.8993 33.9015 37.2569 33.484L37.2569 33.484L37.2626 33.4772C37.6204 33.0427 38.0103 32.8588 38.4486 32.8588C38.8939 32.8588 39.285 33.039 39.6402 33.4537C39.9956 33.8687 40.1768 34.3651 40.1768 34.9683C40.1768 35.5477 39.9978 36.035 39.6402 36.4525ZM27.7423 23.5497C27.3878 23.962 26.9976 24.1413 26.5534 24.1413C26.1081 24.1413 25.717 23.9611 25.3618 23.5463C25.0064 23.1314 24.8252 22.6349 24.8252 22.0318C24.8252 21.4524 25.0042 20.965 25.3618 20.5475C25.717 20.1328 26.1081 19.9525 26.5534 19.9525C26.9988 19.9525 27.3899 20.1328 27.7451 20.5475C28.1027 20.965 28.2817 21.4524 28.2817 22.0318C28.2817 22.6099 28.1033 23.1097 27.7423 23.5497Z" stroke="#F64F00" stroke-width="0.919355"/>
</g>
<defs>
<filter id="filter0_d_2_332" x="0" y="0" width="65" height="64.0807" filterUnits="userSpaceOnUse" color-interpolation-filters="sRGB">
<feFlood flood-opacity="0" result="BackgroundImageFix"/>
<feColorMatrix in="SourceAlpha" type="matrix" values="0 0 0 0 0 0 0 0 0 0 0 0 0 0 0 0 0 0 127 0" result="hardAlpha"/>
<feOffset dy="4"/>
<feGaussianBlur stdDeviation="2"/>
<feComposite in2="hardAlpha" operator="out"/>
<feColorMatrix type="matrix" values="0 0 0 0 0 0 0 0 0 0 0 0 0 0 0 0 0 0 0.25 0"/>
<feBlend mode="normal" in2="BackgroundImageFix" result="effect1_dropShadow_2_332"/>
<feBlend mode="normal" in="SourceGraphic" in2="effect1_dropShadow_2_332" result="shape"/>
</filter>
</defs>
</svg>
