<svg width="150" height="150" viewBox="0 0 150 150" fill="none" xmlns="http://www.w3.org/2000/svg">
<rect width="150" height="150" rx="75" fill="white"/>
<path d="M25.546 80V68.64H34.522V80H32.714V70.224H27.338V80H25.546ZM40.6285 80.16C39.9672 80.16 39.3752 80.048 38.8525 79.824C38.3298 79.5893 37.8765 79.2693 37.4925 78.864C37.1192 78.4587 36.8312 78 36.6285 77.488C36.4258 76.9653 36.3245 76.4107 36.3245 75.824C36.3245 75.2373 36.4258 74.6827 36.6285 74.16C36.8312 73.6373 37.1192 73.1787 37.4925 72.784C37.8765 72.3787 38.3298 72.064 38.8525 71.84C39.3858 71.6053 39.9778 71.488 40.6285 71.488C41.2792 71.488 41.8658 71.6053 42.3885 71.84C42.9218 72.064 43.3752 72.3787 43.7485 72.784C44.1325 73.1787 44.4258 73.6373 44.6285 74.16C44.8312 74.6827 44.9325 75.2373 44.9325 75.824C44.9325 76.4107 44.8312 76.9653 44.6285 77.488C44.4258 78 44.1325 78.4587 43.7485 78.864C43.3752 79.2693 42.9218 79.5893 42.3885 79.824C41.8658 80.048 41.2792 80.16 40.6285 80.16ZM38.1325 75.84C38.1325 76.3733 38.2445 76.8533 38.4685 77.28C38.6925 77.7067 38.9912 78.0427 39.3645 78.288C39.7378 78.5333 40.1592 78.656 40.6285 78.656C41.0872 78.656 41.5032 78.5333 41.8765 78.288C42.2605 78.032 42.5645 77.6907 42.7885 77.264C43.0125 76.8267 43.1245 76.3467 43.1245 75.824C43.1245 75.2907 43.0125 74.8107 42.7885 74.384C42.5645 73.9573 42.2605 73.6213 41.8765 73.376C41.5032 73.12 41.0872 72.992 40.6285 72.992C40.1592 72.992 39.7378 73.12 39.3645 73.376C38.9912 73.632 38.6925 73.9733 38.4685 74.4C38.2445 74.816 38.1325 75.296 38.1325 75.84ZM45.6935 82V78.448H45.8855C46.1095 78.448 46.3175 78.384 46.5095 78.256C46.7015 78.128 46.8722 77.9093 47.0215 77.6C47.1708 77.28 47.2935 76.8427 47.3895 76.288C47.4855 75.7227 47.5442 75.0133 47.5655 74.16L47.6615 71.632H53.6295V78.448H54.7815V82H53.2295V80H47.2295V82H45.6935ZM48.2055 78.448H51.8695V73.152H49.2135L49.1655 74.32C49.1335 75.1307 49.0748 75.8133 48.9895 76.368C48.9148 76.9227 48.8082 77.3653 48.6695 77.696C48.5415 78.0267 48.3868 78.2773 48.2055 78.448ZM56.2747 80V71.632H63.4748V80H61.7148V73.184H58.0348V80H56.2747ZM65.6029 80V71.648H67.3629V77.648L71.6029 71.632H73.2029V80H71.4429V74.128L67.2509 80H65.6029ZM79.098 80.16C78.4473 80.16 77.8553 80.048 77.322 79.824C76.7993 79.5893 76.346 79.2693 75.962 78.864C75.578 78.4587 75.2793 77.9947 75.066 77.472C74.8633 76.9493 74.762 76.3947 74.762 75.808C74.762 75.0187 74.938 74.2987 75.29 73.648C75.6527 72.9973 76.154 72.4747 76.794 72.08C77.4447 71.6853 78.2127 71.488 79.098 71.488C79.9513 71.488 80.6927 71.68 81.322 72.064C81.962 72.4373 82.4313 72.9387 82.73 73.568L81.018 74.112C80.826 73.76 80.554 73.488 80.202 73.296C79.8607 73.0933 79.482 72.992 79.066 72.992C78.5967 72.992 78.17 73.1147 77.786 73.36C77.4127 73.5947 77.114 73.9253 76.89 74.352C76.6767 74.768 76.57 75.2533 76.57 75.808C76.57 76.3413 76.682 76.8267 76.906 77.264C77.13 77.6907 77.4287 78.032 77.802 78.288C78.186 78.5333 78.6127 78.656 79.082 78.656C79.37 78.656 79.6473 78.608 79.914 78.512C80.1913 78.4053 80.4313 78.2667 80.634 78.096C80.8367 77.9147 80.9807 77.7173 81.066 77.504L82.794 78.016C82.6127 78.432 82.3407 78.8 81.978 79.12C81.626 79.44 81.2047 79.696 80.714 79.888C80.234 80.0693 79.6953 80.16 79.098 80.16ZM83.6355 77.552C83.6355 77.0187 83.7848 76.5547 84.0835 76.16C84.3928 75.7547 84.8142 75.4453 85.3475 75.232C85.8808 75.008 86.4995 74.896 87.2035 74.896C87.5768 74.896 87.9555 74.9227 88.3395 74.976C88.7342 75.0293 89.0808 75.1147 89.3795 75.232V74.704C89.3795 74.1173 89.2035 73.6587 88.8515 73.328C88.4995 72.9973 87.9928 72.832 87.3315 72.832C86.8622 72.832 86.4195 72.9173 86.0035 73.088C85.5875 73.248 85.1448 73.4773 84.6755 73.776L84.0835 72.592C84.6382 72.2187 85.1928 71.9413 85.7475 71.76C86.3128 71.5787 86.9048 71.488 87.5235 71.488C88.6435 71.488 89.5235 71.7867 90.1635 72.384C90.8142 72.9707 91.1395 73.808 91.1395 74.896V78.016C91.1395 78.2187 91.1715 78.3627 91.2355 78.448C91.3102 78.5333 91.4328 78.5813 91.6035 78.592V80C91.4435 80.032 91.2995 80.0533 91.1715 80.064C91.0435 80.0747 90.9368 80.08 90.8515 80.08C90.4782 80.08 90.1955 79.9893 90.0035 79.808C89.8115 79.6267 89.6995 79.4133 89.6675 79.168L89.6195 78.688C89.2568 79.1573 88.7928 79.52 88.2275 79.776C87.6622 80.032 87.0915 80.16 86.5155 80.16C85.9608 80.16 85.4648 80.048 85.0275 79.824C84.5902 79.5893 84.2488 79.2747 84.0035 78.88C83.7582 78.4853 83.6355 78.0427 83.6355 77.552ZM88.9635 78.064C89.0915 77.9253 89.1928 77.7867 89.2675 77.648C89.3422 77.5093 89.3795 77.3867 89.3795 77.28V76.32C89.0808 76.2027 88.7662 76.1173 88.4355 76.064C88.1048 76 87.7795 75.968 87.4595 75.968C86.8195 75.968 86.2968 76.096 85.8915 76.352C85.4968 76.608 85.2995 76.96 85.2995 77.408C85.2995 77.6533 85.3635 77.888 85.4915 78.112C85.6302 78.336 85.8222 78.5173 86.0675 78.656C86.3235 78.7947 86.6382 78.864 87.0115 78.864C87.3955 78.864 87.7635 78.7893 88.1155 78.64C88.4675 78.4907 88.7502 78.2987 88.9635 78.064ZM95.165 80V73.184H92.397V71.632H99.709V73.184H96.925V80H95.165ZM101.025 80V71.632H102.785V74.384H104.785C105.777 74.384 106.529 74.6347 107.041 75.136C107.563 75.6373 107.825 76.2987 107.825 77.12C107.825 77.6747 107.713 78.1707 107.489 78.608C107.265 79.0453 106.934 79.3867 106.497 79.632C106.07 79.8773 105.537 80 104.897 80H101.025ZM102.785 78.64H104.625C104.977 78.64 105.259 78.576 105.473 78.448C105.686 78.3093 105.846 78.128 105.953 77.904C106.059 77.6693 106.113 77.4187 106.113 77.152C106.113 76.8853 106.065 76.6453 105.969 76.432C105.873 76.208 105.713 76.032 105.489 75.904C105.275 75.7653 104.982 75.696 104.609 75.696H102.785V78.64ZM113.051 80.16C112.4 80.16 111.808 80.048 111.275 79.824C110.752 79.5893 110.299 79.2693 109.915 78.864C109.531 78.4587 109.232 77.9947 109.019 77.472C108.816 76.9493 108.715 76.3947 108.715 75.808C108.715 75.0187 108.891 74.2987 109.243 73.648C109.606 72.9973 110.107 72.4747 110.747 72.08C111.398 71.6853 112.166 71.488 113.051 71.488C113.904 71.488 114.646 71.68 115.275 72.064C115.915 72.4373 116.384 72.9387 116.683 73.568L114.971 74.112C114.779 73.76 114.507 73.488 114.155 73.296C113.814 73.0933 113.435 72.992 113.019 72.992C112.55 72.992 112.123 73.1147 111.739 73.36C111.366 73.5947 111.067 73.9253 110.843 74.352C110.63 74.768 110.523 75.2533 110.523 75.808C110.523 76.3413 110.635 76.8267 110.859 77.264C111.083 77.6907 111.382 78.032 111.755 78.288C112.139 78.5333 112.566 78.656 113.035 78.656C113.323 78.656 113.6 78.608 113.867 78.512C114.144 78.4053 114.384 78.2667 114.587 78.096C114.79 77.9147 114.934 77.7173 115.019 77.504L116.747 78.016C116.566 78.432 116.294 78.8 115.931 79.12C115.579 79.44 115.158 79.696 114.667 79.888C114.187 80.0693 113.648 80.16 113.051 80.16ZM117.575 80L119.815 76.688C119.292 76.56 118.876 76.2933 118.567 75.888C118.258 75.4827 118.103 74.9387 118.103 74.256C118.103 73.7333 118.22 73.2747 118.455 72.88C118.7 72.4853 119.042 72.176 119.479 71.952C119.916 71.728 120.423 71.616 120.999 71.616H124.679V80H122.919V76.976H121.543L119.495 80H117.575ZM121.175 75.696H122.919V72.976H121.287C120.839 72.976 120.482 73.0987 120.215 73.344C119.959 73.5893 119.831 73.9093 119.831 74.304C119.831 74.6987 119.943 75.0293 120.167 75.296C120.402 75.5627 120.738 75.696 121.175 75.696Z" fill="#333333"/>
</svg>
